<svg xmlns="http://www.w3.org/2000/svg" viewBox="0 0 108 321.72">
  <defs>
    <style>
      .cls-1 {
        fill: #d35e13;
      }

      .cls-2 {
        fill: #fff;
      }

      .cls-3 {
        fill: #ac4e1b;
      }

      .cls-4 {
        fill: #573210;
      }
    </style>
  </defs>
  <title>APPROVED_UT Towers</title>
  <g id="Layer_7" data-name="Layer 7">
    <g>
      <polygon class="cls-1" points="27.88 27.49 80.89 27.49 82.7 12.18 82.73 9.05 26.09 9.05 26.07 12.02 27.88 27.49"/>
      <rect class="cls-1" x="43.02" width="22.06" height="5.27"/>
      <polygon class="cls-1" points="19.1 77.21 19.1 74.14 12.29 74.14 12.29 77.21 10.32 77.21 10.32 106.41 21.07 106.41 21.07 77.21 19.1 77.21"/>
      <rect class="cls-1" x="30.99" y="19.34" width="46.3" height="40.42"/>
      <rect class="cls-1" x="34.98" y="3.13" width="38.85" height="7.24"/>
      <g>
        <polygon class="cls-1" points="36.22 54.49 36.55 19.26 32.82 19.26 32.49 54.49 36.22 54.49"/>
        <rect class="cls-1" x="28.98" y="52.96" width="9.22" height="5.93"/>
      </g>
      <g>
        <polygon class="cls-1" points="71.84 54.6 71.51 19.45 75.24 19.45 75.57 54.6 71.84 54.6"/>
        <rect class="cls-1" x="70.02" y="53.07" width="9.22" height="5.93"/>
      </g>
      <rect class="cls-2" x="39.73" y="23.04" width="29.41" height="21.85"/>
      <rect class="cls-2" x="37.62" y="52.19" width="32.93" height="8.56"/>
      <rect class="cls-1" x="27.41" y="58.12" width="54" height="23.05"/>
      <polygon class="cls-1" points="97.05 76.79 97.05 73.72 90.25 73.72 90.25 76.79 88.27 76.79 88.27 105.98 99.03 105.98 99.03 76.79 97.05 76.79"/>
      <rect class="cls-1" x="15.99" y="80.07" width="76.83" height="28.54"/>
      <rect class="cls-1" x="15.99" y="83.55" width="76.83" height="25.05"/>
      <rect class="cls-3" x="42.34" y="69.09" width="24.15" height="3.51"/>
      <rect class="cls-1" x="4.8" y="101.58" width="99.22" height="16.46"/>
      <rect class="cls-1" x="3.15" y="113.62" width="102.73" height="208.1"/>
      <rect class="cls-1" x="48.63" y="121.24" width="10.54" height="196.7"/>
      <g>
        <rect class="cls-2" x="50.77" y="141.18" width="6.26" height="8.4"/>
        <rect class="cls-1" x="53.63" y="141.22" width="0.53" height="8.4"/>
      </g>
      <g>
        <rect class="cls-2" x="50.77" y="154.68" width="6.26" height="8.4"/>
        <rect class="cls-1" x="53.63" y="154.72" width="0.53" height="8.4"/>
      </g>
      <g>
        <rect class="cls-2" x="50.77" y="168.18" width="6.26" height="8.4"/>
        <rect class="cls-1" x="53.63" y="168.22" width="0.53" height="8.4"/>
      </g>
      <g>
        <rect class="cls-2" x="50.77" y="181.68" width="6.26" height="8.4"/>
        <rect class="cls-1" x="53.63" y="181.72" width="0.53" height="8.4"/>
      </g>
      <g>
        <rect class="cls-2" x="50.77" y="195.18" width="6.26" height="8.4"/>
        <rect class="cls-1" x="53.63" y="195.23" width="0.53" height="8.4"/>
      </g>
      <g>
        <rect class="cls-2" x="50.77" y="208.69" width="6.26" height="8.4"/>
        <rect class="cls-1" x="53.63" y="208.73" width="0.53" height="8.4"/>
      </g>
      <g>
        <rect class="cls-2" x="50.77" y="222.19" width="6.26" height="8.4"/>
        <rect class="cls-1" x="53.63" y="222.23" width="0.53" height="8.4"/>
      </g>
      <g>
        <rect class="cls-2" x="50.77" y="235.69" width="6.26" height="8.4"/>
        <rect class="cls-1" x="53.63" y="235.73" width="0.53" height="8.4"/>
      </g>
      <g>
        <rect class="cls-2" x="50.77" y="262.7" width="6.26" height="8.4"/>
        <rect class="cls-1" x="53.63" y="262.74" width="0.53" height="8.4"/>
      </g>
      <g>
        <rect class="cls-2" x="50.77" y="276.2" width="6.26" height="8.4"/>
        <rect class="cls-1" x="53.63" y="276.24" width="0.53" height="8.4"/>
      </g>
      <g>
        <rect class="cls-2" x="50.77" y="289.7" width="6.26" height="8.4"/>
        <rect class="cls-1" x="53.63" y="289.74" width="0.53" height="8.4"/>
      </g>
      <g>
        <rect class="cls-2" x="50.77" y="303.2" width="6.26" height="8.4"/>
        <rect class="cls-1" x="53.63" y="303.24" width="0.53" height="8.4"/>
      </g>
      <g>
        <rect class="cls-2" x="50.77" y="127.67" width="6.26" height="8.4"/>
        <rect class="cls-1" x="53.63" y="127.71" width="0.53" height="8.4"/>
      </g>
      <rect class="cls-1" x="28.71" y="121.24" width="10.54" height="196.7"/>
      <g>
        <rect class="cls-2" x="30.85" y="141.18" width="6.26" height="8.4"/>
        <rect class="cls-1" x="33.71" y="141.22" width="0.54" height="8.4"/>
      </g>
      <g>
        <rect class="cls-2" x="30.85" y="154.68" width="6.26" height="8.4"/>
        <rect class="cls-1" x="33.71" y="154.72" width="0.54" height="8.4"/>
      </g>
      <g>
        <rect class="cls-2" x="30.85" y="168.18" width="6.26" height="8.4"/>
        <rect class="cls-1" x="33.71" y="168.22" width="0.54" height="8.4"/>
      </g>
      <g>
        <rect class="cls-2" x="30.85" y="181.68" width="6.26" height="8.4"/>
        <rect class="cls-1" x="33.71" y="181.72" width="0.54" height="8.4"/>
      </g>
      <g>
        <rect class="cls-2" x="30.85" y="195.18" width="6.26" height="8.4"/>
        <rect class="cls-1" x="33.71" y="195.23" width="0.54" height="8.4"/>
      </g>
      <g>
        <rect class="cls-2" x="30.85" y="208.69" width="6.26" height="8.4"/>
        <rect class="cls-1" x="33.71" y="208.73" width="0.54" height="8.4"/>
      </g>
      <g>
        <rect class="cls-2" x="30.85" y="222.19" width="6.26" height="8.4"/>
        <rect class="cls-1" x="33.71" y="222.23" width="0.54" height="8.4"/>
      </g>
      <g>
        <rect class="cls-2" x="30.85" y="262.7" width="6.26" height="8.4"/>
        <rect class="cls-1" x="33.71" y="262.74" width="0.54" height="8.4"/>
      </g>
      <g>
        <rect class="cls-2" x="30.85" y="276.2" width="6.26" height="8.4"/>
        <rect class="cls-1" x="33.71" y="276.24" width="0.54" height="8.4"/>
      </g>
      <g>
        <rect class="cls-2" x="30.85" y="289.7" width="6.26" height="8.4"/>
        <rect class="cls-1" x="33.71" y="289.74" width="0.54" height="8.4"/>
      </g>
      <g>
        <rect class="cls-2" x="30.85" y="303.2" width="6.26" height="8.4"/>
        <rect class="cls-1" x="33.71" y="303.24" width="0.54" height="8.4"/>
      </g>
      <g>
        <rect class="cls-2" x="30.85" y="127.67" width="6.26" height="8.4"/>
        <rect class="cls-1" x="33.71" y="127.71" width="0.54" height="8.4"/>
      </g>
      <rect class="cls-1" x="68.54" y="121.24" width="10.54" height="196.7"/>
      <g>
        <rect class="cls-2" x="70.68" y="141.18" width="6.26" height="8.4"/>
        <rect class="cls-1" x="73.54" y="141.22" width="0.54" height="8.4"/>
      </g>
      <g>
        <rect class="cls-2" x="70.68" y="154.68" width="6.26" height="8.4"/>
        <rect class="cls-1" x="73.54" y="154.72" width="0.54" height="8.4"/>
      </g>
      <g>
        <rect class="cls-2" x="70.68" y="168.18" width="6.26" height="8.4"/>
        <rect class="cls-1" x="73.54" y="168.22" width="0.54" height="8.4"/>
      </g>
      <g>
        <rect class="cls-2" x="70.68" y="181.68" width="6.26" height="8.4"/>
        <rect class="cls-1" x="73.54" y="181.72" width="0.54" height="8.4"/>
      </g>
      <g>
        <rect class="cls-2" x="70.68" y="195.18" width="6.26" height="8.4"/>
        <rect class="cls-1" x="73.54" y="195.23" width="0.54" height="8.4"/>
      </g>
      <g>
        <rect class="cls-2" x="70.68" y="208.69" width="6.26" height="8.4"/>
        <rect class="cls-1" x="73.54" y="208.73" width="0.54" height="8.4"/>
      </g>
      <g>
        <rect class="cls-2" x="70.68" y="222.19" width="6.26" height="8.4"/>
        <rect class="cls-1" x="73.54" y="222.23" width="0.54" height="8.4"/>
      </g>
      <g>
        <rect class="cls-2" x="70.68" y="262.7" width="6.26" height="8.4"/>
        <rect class="cls-1" x="73.54" y="262.74" width="0.54" height="8.4"/>
      </g>
      <g>
        <rect class="cls-2" x="70.68" y="276.2" width="6.26" height="8.4"/>
        <rect class="cls-1" x="73.54" y="276.24" width="0.54" height="8.4"/>
      </g>
      <g>
        <rect class="cls-2" x="70.68" y="289.7" width="6.26" height="8.4"/>
        <rect class="cls-1" x="73.54" y="289.74" width="0.54" height="8.4"/>
      </g>
      <g>
        <rect class="cls-2" x="70.68" y="303.2" width="6.26" height="8.4"/>
        <rect class="cls-1" x="73.54" y="303.24" width="0.54" height="8.4"/>
      </g>
      <g>
        <rect class="cls-2" x="70.68" y="127.67" width="6.26" height="8.4"/>
        <rect class="cls-1" x="73.54" y="127.71" width="0.54" height="8.4"/>
      </g>
      <rect class="cls-1" x="37.33" y="61.41" width="33.81" height="20.41"/>
      <rect class="cls-1" x="37.55" y="71.29" width="33.37" height="30.29"/>
      <rect class="cls-1" x="37.11" y="70.96" width="34.24" height="8.56"/>
      <rect class="cls-2" x="3.07" y="101.14" width="101.63" height="2.2"/>
      <rect class="cls-1" x="43.04" y="78.53" width="22.39" height="23.05"/>
      <polygon class="cls-1" points="64.32 71.51 72.45 71.51 63.82 64.92 63.01 64.92 63.01 67.55 60.82 67.55 60.82 64.7 55.82 64.7 54.45 61.41 53.13 61.41 51.76 64.7 46.99 64.7 46.99 67.55 45.45 67.55 45.45 64.95 44.73 64.95 36.01 71.51 43.68 71.51 43.68 72.38 46.99 72.38 46.99 72.6 60.82 72.6 60.82 72.38 64.32 72.38 64.32 71.51"/>
      <rect class="cls-1" x="35.9" y="70.85" width="36.66" height="3.73"/>
      <polygon class="cls-1" points="57.09 58.27 54.01 51.9 54.01 51.9 50.94 58.27 57.09 58.27"/>
      <polygon class="cls-1" points="47.22 58.27 44.15 51.9 44.15 51.9 41.08 58.27 47.22 58.27"/>
      <polygon class="cls-1" points="66.95 58.27 63.88 51.9 63.88 51.9 60.8 58.27 66.95 58.27"/>
      <rect class="cls-1" x="39.66" y="50.65" width="29.5" height="2.42"/>
      <polygon class="cls-1" points="39.73 18.27 39.73 15.53 31.61 15.53 30.95 18.27 39.73 18.27"/>
      <polygon class="cls-2" points="70.46 15.75 69.15 11.58 39.07 11.58 37.76 15.75 70.46 15.75"/>
      <polygon class="cls-1" points="77.38 18.47 76.72 15.64 69.26 15.64 69.26 18.47 77.38 18.47"/>
      <rect class="cls-2" x="46.76" y="19.47" width="15.15" height="28.76"/>
      <polygon class="cls-1" points="52.62 48.27 51.97 17.71 49.11 17.71 48.45 48.27 52.62 48.27"/>
      <polygon class="cls-1" points="59.9 48.27 59.24 17.71 56.39 17.71 55.73 48.27 59.9 48.27"/>
      <polygon class="cls-1" points="67.19 48.27 66.53 17.71 63.67 17.71 63.01 48.27 67.19 48.27"/>
      <polygon class="cls-1" points="45.34 48.27 44.68 17.71 41.83 17.71 41.17 48.27 45.34 48.27"/>
      <rect class="cls-1" x="25.96" y="9.05" width="56.91" height="3.29"/>
      <polygon class="cls-1" points="37.1 74.58 42.7 79.19 65.42 79.19 71.34 74.74 37.1 74.58"/>
      <circle class="cls-2" cx="54.23" cy="78.09" r="11.33"/>
      <circle class="cls-1" cx="54.23" cy="78.19" r="9.93"/>
      <rect class="cls-1" x="52.57" y="12.13" width="2.63" height="1.54"/>
      <rect class="cls-1" x="44.89" y="12.24" width="2.63" height="1.54"/>
      <rect class="cls-1" x="60.48" y="12.02" width="2.63" height="1.54"/>
      <rect class="cls-2" y="117.82" width="108" height="3.51"/>
      <circle class="cls-2" cx="54.23" cy="78.19" r="7.9"/>
      <line class="cls-1" x1="48.46" y1="74.84" x2="56.36" y2="79.29"/>
      <line class="cls-1" x1="53.56" y1="78.57" x2="58.01" y2="74.9"/>
      <circle class="cls-1" cx="54.23" cy="78.19" r="0.92"/>
      <rect class="cls-2" x="50.77" y="249.19" width="6.26" height="8.4"/>
      <rect class="cls-4" x="30.85" y="249.19" width="6.26" height="8.4"/>
      <rect class="cls-2" x="30.85" y="249.19" width="6.26" height="8.4"/>
      <rect class="cls-2" x="30.85" y="235.69" width="6.26" height="8.4"/>
      <rect class="cls-2" x="70.68" y="249.19" width="6.26" height="8.4"/>
      <rect class="cls-1" x="53.63" y="249.23" width="0.53" height="8.4"/>
      <rect class="cls-1" x="33.71" y="249.23" width="0.54" height="8.4"/>
      <rect class="cls-1" x="73.54" y="249.23" width="0.54" height="8.4"/>
      <rect class="cls-2" x="70.68" y="235.69" width="6.26" height="8.4"/>
      <rect class="cls-1" x="33.71" y="235.73" width="0.54" height="8.4"/>
      <rect class="cls-1" x="73.54" y="235.73" width="0.54" height="8.4"/>
    </g>
  </g>
</svg>
